<svg width="42" height="40" viewBox="0 0 42 40" fill="none" xmlns="http://www.w3.org/2000/svg">
<path fill-rule="evenodd" clip-rule="evenodd" d="M28.7278 2.08111C31.6725 -0.693704 36.4468 -0.693702 39.3915 2.08111C42.3362 4.85592 42.3362 9.35479 39.3915 12.1296L14.0879 35.9734C13.8446 36.2026 13.5414 36.3671 13.2089 36.4502L2.44986 39.1386C1.77688 39.3068 1.0598 39.1241 0.568461 38.6592C0.0771185 38.1944 -0.113939 37.518 0.06718 36.8845L2.98263 26.6874C3.07143 26.3768 3.24523 26.0935 3.48663 25.8661L28.7278 2.08111ZM36.6338 4.67973C35.2122 3.34009 32.9072 3.34009 31.4855 4.67973L29.3609 6.68182L34.5091 11.5331L36.6338 9.53098C38.0555 8.19135 38.0555 6.01936 36.6338 4.67973ZM31.7514 14.1317L26.6031 9.28044L6.6128 28.1175L4.71028 34.7718L11.7016 33.0248L31.7514 14.1317Z" fill="#E25670"/>
</svg>
