<svg width="21" height="19" viewBox="0 0 21 19" fill="none" xmlns="http://www.w3.org/2000/svg">
<path fill-rule="evenodd" clip-rule="evenodd" d="M0.5 7.02286C0.5 3.56225 3.29443 0.75 6.75 0.75C8.15702 0.75 9.45603 1.21743 10.5 2.00422C11.544 1.21743 12.843 0.75 14.25 0.75C17.7056 0.75 20.5 3.56225 20.5 7.02286C20.5 8.31528 19.8668 9.5713 19.1673 10.5946C18.4523 11.6407 17.575 12.5757 16.9096 13.244L12.9321 17.2386C11.5894 18.5871 9.41065 18.5871 8.0679 17.2386L4.09042 13.244C3.4139 12.5646 2.53621 11.6292 1.82375 10.5855C1.12592 9.56316 0.5 8.31368 0.5 7.02286Z" fill="#E25670"/>
</svg>
