<svg width="56" height="44" viewBox="0 0 56 44" fill="none" xmlns="http://www.w3.org/2000/svg">
<path d="M21.5389 0.349998C23.5389 0.849998 24.8389 2.45 25.4389 5.14999C22.5389 6.74999 19.5889 9.15 16.5889 12.35C13.5889 15.55 11.4889 19.05 10.2889 22.85H10.7389C14.5389 22.85 17.4889 23.85 19.5889 25.85C21.7889 27.75 22.8889 30.25 22.8889 33.35C22.8889 36.25 21.7889 38.7 19.5889 40.7C17.4889 42.7 14.9389 43.7 11.9389 43.7C8.33887 43.7 5.48887 42.45 3.38887 39.95C1.28887 37.35 0.238867 34.25 0.238867 30.65C0.238867 24.55 2.18887 19.1 6.08887 14.3C9.98887 9.49999 15.1389 4.84999 21.5389 0.349998ZM51.5389 0.349998C53.5389 0.849998 54.8389 2.45 55.4389 5.14999C52.5389 6.74999 49.5889 9.15 46.5889 12.35C43.5889 15.55 41.4889 19.05 40.2889 22.85H40.7389C44.5389 22.85 47.4889 23.85 49.5889 25.85C51.7889 27.75 52.8889 30.25 52.8889 33.35C52.8889 36.25 51.7889 38.7 49.5889 40.7C47.4889 42.7 44.9389 43.7 41.9389 43.7C38.3389 43.7 35.4889 42.45 33.3889 39.95C31.2889 37.35 30.2389 34.25 30.2389 30.65C30.2389 24.55 32.1889 19.1 36.0889 14.3C39.9889 9.49999 45.1389 4.84999 51.5389 0.349998Z" fill="white"/>
</svg>
