<svg width="24" height="24" viewBox="0 0 24 24" fill="none" xmlns="http://www.w3.org/2000/svg">
<path d="M17.7409 0.816345L6.4018 0.816345C3.26917 0.816345 0.720703 3.43093 0.720703 6.64482L0.720703 17.2876C0.720703 20.5015 3.26917 23.116 6.4018 23.116H17.7409C20.8735 23.116 23.422 20.5015 23.422 17.2876V6.64482C23.422 3.43093 20.8735 0.816345 17.7409 0.816345ZM2.72482 6.64482C2.72482 4.56501 4.37458 2.87245 6.4018 2.87245L17.7409 2.87245C19.7681 2.87245 21.4179 4.56501 21.4179 6.64482V17.2876C21.4179 19.3674 19.7681 21.0599 17.7409 21.0599H6.4018C4.37458 21.0599 2.72482 19.3674 2.72482 17.2876L2.72482 6.64482Z" fill="white"/>
<path d="M12.0715 17.3863C14.9846 17.3863 17.3559 14.9548 17.3559 11.9649C17.3559 8.97489 14.9859 6.5434 12.0715 6.5434C9.15712 6.5434 6.78711 8.97489 6.78711 11.9649C6.78711 14.9548 9.15712 17.3863 12.0715 17.3863ZM12.0715 8.60082C13.8805 8.60082 15.3518 10.1103 15.3518 11.9662C15.3518 13.8221 13.8805 15.3316 12.0715 15.3316C10.2625 15.3316 8.79122 13.8221 8.79122 11.9662C8.79122 10.1103 10.2625 8.60082 12.0715 8.60082Z" fill="white"/>
<path d="M17.8447 7.41929C18.6291 7.41929 19.2685 6.76465 19.2685 5.95854C19.2685 5.15244 18.6304 4.4978 17.8447 4.4978C17.059 4.4978 16.4209 5.15244 16.4209 5.95854C16.4209 6.76465 17.059 7.41929 17.8447 7.41929Z" fill="white"/>
</svg>
