<svg width="23" height="23" viewBox="0 0 23 23" fill="none" xmlns="http://www.w3.org/2000/svg">
<path d="M11.5094 0C5.1532 0 0 5.14474 0 11.4905C0 16.361 3.03129 20.5222 7.313 22.1961C7.2088 21.2882 7.12354 19.8886 7.35089 18.8956C7.55929 17.9971 8.69603 13.1834 8.69603 13.1834C8.69603 13.1834 8.35501 12.493 8.35501 11.4811C8.35501 9.88281 9.28334 8.6912 10.439 8.6912C11.4242 8.6912 11.8978 9.42887 11.8978 10.3084C11.8978 11.2919 11.2726 12.7673 10.9411 14.1386C10.6664 15.2829 11.5189 16.2192 12.6462 16.2192C14.6923 16.2192 16.2648 14.0629 16.2648 10.9609C16.2648 8.20888 14.285 6.28906 11.4526 6.28906C8.17502 6.28906 6.25205 8.73849 6.25205 11.273C6.25205 12.2566 6.63096 13.3158 7.1046 13.8927C7.19932 14.0062 7.2088 14.1102 7.18038 14.2237C7.09512 14.5831 6.89619 15.368 6.8583 15.5288C6.81094 15.7368 6.68779 15.7841 6.46992 15.6801C5.03005 15.0086 4.13014 12.9186 4.13014 11.2257C4.13014 7.60362 6.76358 4.27467 11.7368 4.27467C15.7248 4.27467 18.8319 7.11184 18.8319 10.9137C18.8319 14.8762 16.3311 18.0633 12.8641 18.0633C11.6989 18.0633 10.6001 17.4581 10.2306 16.7393C10.2306 16.7393 9.65278 18.9334 9.51069 19.4725C9.25492 20.4749 8.55394 21.7233 8.0803 22.4893C9.16019 22.8203 10.2969 23 11.4905 23C17.8467 23 22.9999 17.8553 22.9999 11.5095C23.0189 5.14474 17.8657 0 11.5094 0Z" fill="white"/>
</svg>
