<svg width="21" height="19" viewBox="0 0 21 19" fill="none" xmlns="http://www.w3.org/2000/svg">
<path fill-rule="evenodd" clip-rule="evenodd" d="M6.75 2.62506C4.33754 2.62506 2.375 4.59025 2.375 7.02292C2.375 7.74394 2.74361 8.60734 3.37236 9.52843C3.98648 10.4281 4.76742 11.2666 5.41909 11.9211L9.39657 15.9157C10.0064 16.5282 10.9936 16.5282 11.6034 15.9157L15.5809 11.9211C16.2207 11.2786 17.002 10.4397 17.6194 9.5366C18.2522 8.61075 18.625 7.74234 18.625 7.02292C18.625 4.59025 16.6625 2.62506 14.25 2.62506C13.0457 2.62506 11.9558 3.11305 11.1632 3.90636C10.9874 4.08235 10.7488 4.18123 10.5 4.18123C10.2512 4.18123 10.0126 4.08235 9.8368 3.90636C9.04417 3.11305 7.95435 2.62506 6.75 2.62506ZM0.5 7.02292C0.5 3.56231 3.29443 0.750061 6.75 0.750061C8.15702 0.750061 9.45603 1.2175 10.5 2.00428C11.544 1.2175 12.843 0.750061 14.25 0.750061C17.7056 0.750061 20.5 3.56231 20.5 7.02292C20.5 8.31534 19.8668 9.57136 19.1673 10.5947C18.4523 11.6407 17.575 12.5758 16.9096 13.2441L12.9321 17.2387C11.5894 18.5872 9.41065 18.5872 8.0679 17.2387L4.09042 13.2441C3.4139 12.5646 2.53621 11.6293 1.82375 10.5855C1.12592 9.56323 0.5 8.31374 0.5 7.02292Z" fill="#E25670"/>
</svg>
