<svg width="54" height="54" viewBox="0 0 54 54" fill="none" xmlns="http://www.w3.org/2000/svg">
<path fill-rule="evenodd" clip-rule="evenodd" d="M29.8772 5.69167C28.2881 4.10266 25.7119 4.10266 24.1228 5.69166L20.5753 9.23924C20.1533 9.6612 19.581 9.89825 18.9843 9.89825H13.9672C11.7201 9.89825 9.89834 11.72 9.89834 13.9672V18.9842C9.89834 19.5809 9.66129 20.1532 9.23933 20.5752L5.69176 24.1228C4.10275 25.7118 4.10275 28.2881 5.69176 29.8771L9.23933 33.4246C9.66129 33.8466 9.89834 34.4189 9.89834 35.0156V40.0327C9.89834 42.2799 11.7201 44.1016 13.9672 44.1016H18.9843C19.581 44.1016 20.1533 44.3386 20.5753 44.7606L24.1228 48.3082C25.7119 49.8972 28.2881 49.8972 29.8772 48.3082L33.4247 44.7606C33.8467 44.3386 34.419 44.1016 35.0157 44.1016H40.0327C42.2799 44.1016 44.1017 42.2799 44.1017 40.0327V35.0156C44.1017 34.4189 44.3387 33.8466 44.7607 33.4246L48.3082 29.8771C49.8973 28.2881 49.8973 25.7118 48.3082 24.1228L44.7607 20.5752C44.3387 20.1532 44.1017 19.5809 44.1017 18.9842V13.9672C44.1017 11.72 42.2799 9.89825 40.0327 9.89825H35.0157C34.419 9.89825 33.8467 9.6612 33.4247 9.23924L29.8772 5.69167ZM20.9409 2.50968C24.2872 -0.836684 29.7128 -0.836682 33.0591 2.50968L35.9477 5.39825H40.0327C44.7652 5.39825 48.6017 9.23468 48.6017 13.9672V18.0522L51.4902 20.9408C54.8366 24.2871 54.8366 29.7127 51.4902 33.059L48.6017 35.9476V40.0327C48.6017 44.7651 44.7652 48.6016 40.0327 48.6016H35.9477L33.0591 51.4901C29.7128 54.8365 24.2872 54.8365 20.9409 51.4901L18.0523 48.6016H13.9672C9.23477 48.6016 5.39834 44.7651 5.39834 40.0327V35.9476L2.50978 33.059C-0.83659 29.7127 -0.836592 24.2871 2.50978 20.9408L5.39834 18.0522V13.9672C5.39834 9.23468 9.23477 5.39825 13.9672 5.39825H18.0523L20.9409 2.50968ZM38.0301 15.3995C39.052 16.1065 39.3073 17.508 38.6004 18.53L25.1105 38.03C24.6985 38.6255 24.0251 38.9863 23.3011 38.9995C22.5771 39.0127 21.891 38.6767 21.4576 38.0966L15.4475 30.052C14.7038 29.0565 14.9078 27.6465 15.9033 26.9028C16.8988 26.1591 18.3088 26.3632 19.0525 27.3587L23.1899 32.8966L34.8996 15.9698C35.6066 14.9479 37.0081 14.6926 38.0301 15.3995Z" fill="#E25670"/>
</svg>
